<svg width="451" height="102" viewBox="0 0 451 102" fill="none" xmlns="http://www.w3.org/2000/svg">
<path d="M402.988 22.8508L398.337 17.4677L334.673 99.76H314.994L386.175 8.21739L379.745 5.17246L402.024 0L402.988 22.8508Z" fill="white"/>
<path d="M326.937 9.61617H377.841L365.779 24.8517H326.937V9.61617Z" fill="white"/>
<path d="M353.083 84.5244H393.437V99.76H341.656L353.083 84.5244Z" fill="white"/>
<path d="M25.1875 101.222C20.6458 101.222 16.4583 100.056 12.625 97.7224C8.83333 95.3891 5.77083 92.2849 3.4375 88.4099C1.14583 84.4933 0 80.2016 0 75.5349L0.125 34.9724C0.125 30.2224 1.27083 25.9516 3.5625 22.1599C5.8125 18.3266 8.85417 15.2641 12.6875 12.9724C16.5208 10.6391 20.6875 9.47244 25.1875 9.47244C29.8542 9.47244 34.0417 10.6183 37.75 12.9099C41.5 15.2016 44.5 18.2849 46.75 22.1599C49.0417 25.9933 50.1875 30.2641 50.1875 34.9724L50.3125 75.5349C50.3125 80.2016 49.1875 84.4724 46.9375 88.3474C44.6458 92.2641 41.6042 95.3891 37.8125 97.7224C34.0208 100.056 29.8125 101.222 25.1875 101.222ZM25.1875 85.7849C27.7708 85.7849 30.0208 84.7433 31.9375 82.6599C33.8542 80.5349 34.8125 78.1599 34.8125 75.5349L34.6875 34.9724C34.6875 32.1391 33.7917 29.7433 32 27.7849C30.2083 25.8266 27.9375 24.8474 25.1875 24.8474C22.5625 24.8474 20.3125 25.8058 18.4375 27.7224C16.5625 29.6391 15.625 32.0558 15.625 34.9724V75.5349C15.625 78.3266 16.5625 80.7433 18.4375 82.7849C20.3125 84.7849 22.5625 85.7849 25.1875 85.7849Z" fill="white"/>
<path d="M75 99.9724H60.5C60.1667 99.9724 60 99.7641 60 99.3474L60.25 11.4099C60.25 11.0766 60.4167 10.9099 60.75 10.9099H86.625C91.25 10.9099 95.5 12.0349 99.375 14.2849C103.25 16.5349 106.333 19.5558 108.625 23.3474C110.958 27.1391 112.125 31.4308 112.125 36.2224C112.125 39.3474 111.646 42.1808 110.688 44.7224C109.729 47.2641 108.604 49.4099 107.312 51.1599C106.062 52.9099 104.917 54.2016 103.875 55.0349C108.5 60.1599 110.812 66.1808 110.812 73.0974L110.938 99.3474C110.938 99.7641 110.729 99.9724 110.312 99.9724H95.8125C95.4792 99.9724 95.3125 99.8474 95.3125 99.5974V73.0974C95.3125 70.0141 94.2292 67.3474 92.0625 65.0974C89.8958 62.8474 87.2292 61.7224 84.0625 61.7224H75.625L75.5 99.3474C75.5 99.7641 75.3333 99.9724 75 99.9724ZM86.625 26.2224H75.625V46.3474H86.625C89.25 46.3474 91.5833 45.3683 93.625 43.4099C95.7083 41.4516 96.75 39.0558 96.75 36.2224C96.75 33.5141 95.75 31.1808 93.75 29.2224C91.75 27.2224 89.375 26.2224 86.625 26.2224Z" fill="white"/>
<path d="M145.188 101.222C140.562 101.222 136.396 100.077 132.688 97.7849C128.938 95.4933 125.917 92.4099 123.625 88.5349C121.375 84.6599 120.25 80.3266 120.25 75.5349V34.9724C120.25 30.3058 121.396 26.0558 123.688 22.2224C125.938 18.3474 128.958 15.2641 132.75 12.9724C136.542 10.6391 140.688 9.47244 145.188 9.47244C149.896 9.47244 154.146 10.5974 157.938 12.8474C161.729 15.1391 164.729 18.2016 166.938 22.0349C169.188 25.8683 170.312 30.1808 170.312 34.9724V40.8474C170.312 41.1808 170.104 41.3474 169.688 41.3474H155.312C154.979 41.3474 154.812 41.1808 154.812 40.8474V35.9724C154.812 32.7224 153.896 30.0349 152.062 27.9099C150.229 25.7849 147.938 24.7224 145.188 24.7224C142.729 24.7224 140.542 25.7433 138.625 27.7849C136.708 29.8266 135.75 32.2224 135.75 34.9724V75.5349C135.75 78.3266 136.688 80.7433 138.562 82.7849C140.438 84.7849 142.646 85.7849 145.188 85.7849C147.938 85.7849 150.229 84.8058 152.062 82.8474C153.896 80.8474 154.812 78.4099 154.812 75.5349V69.2224H145.875C145.417 69.2224 145.188 69.0141 145.188 68.5974V54.2849C145.188 53.8683 145.417 53.6599 145.875 53.6599H169.812C170.146 53.6599 170.312 53.8683 170.312 54.2849V75.5349C170.312 80.3266 169.188 84.6599 166.938 88.5349C164.646 92.4099 161.625 95.4933 157.875 97.7849C154.125 100.077 149.896 101.222 145.188 101.222Z" fill="white"/>
<path d="M247.938 99.9724H235.125C234.458 99.9724 234.125 99.6808 234.125 99.0974L234 11.9099C234 11.2433 234.333 10.9099 235 10.9099H246.562L268.188 61.3474L267.562 11.9099C267.562 11.2433 267.938 10.9099 268.688 10.9099H281.375C281.875 10.9099 282.125 11.2433 282.125 11.9099L282.25 99.2224C282.25 99.7224 282.042 99.9724 281.625 99.9724H270.375L248.188 52.8474L249.125 98.9724C249.125 99.6391 248.729 99.9724 247.938 99.9724Z" fill="white"/>
<path d="M308.5 99.9724H294C293.583 99.9724 293.375 99.7641 293.375 99.3474L293.5 11.4099C293.5 11.0766 293.667 10.9099 294 10.9099H308.375C308.708 10.9099 308.875 11.0766 308.875 11.4099L309 99.3474C309 99.7641 308.833 99.9724 308.5 99.9724Z" fill="white"/>
<path d="M450.312 100.306H408.938C408.604 100.306 408.438 100.097 408.438 99.6808L408.562 11.7433C408.562 11.4099 408.729 11.2433 409.062 11.2433H450.188C450.521 11.2433 450.688 11.4516 450.688 11.8683V26.1808C450.688 26.5141 450.521 26.6808 450.188 26.6808H423.938V46.6808H450.188C450.521 46.6808 450.688 46.8474 450.688 47.1808L450.812 61.6808C450.812 62.0141 450.646 62.1808 450.312 62.1808H423.938V84.5558H450.312C450.646 84.5558 450.812 84.7641 450.812 85.1808V99.8058C450.812 100.139 450.646 100.306 450.312 100.306Z" fill="white"/>
<path d="M190.938 11.4099L175.062 99.3474C175.062 99.7641 175.229 99.9724 175.562 99.9724H189.812C190.188 99.9724 190.396 99.7641 190.438 99.3474L191.812 89.9724L200.125 40.3474L200.688 35.5974L209.25 89.9724L210.625 99.3474C210.667 99.7641 210.896 99.9724 211.312 99.9724H225.5C225.875 99.9724 226.042 99.7641 226 99.3474L210.75 11.4099C210.667 11.0766 210.458 10.9099 210.125 10.9099H191.562C191.229 10.9099 191.021 11.0766 190.938 11.4099Z" fill="white"/>
</svg>
